HIERARCHY
ROOT Hips
{
	OFFSET 0.00 0.00 0.00
	CHANNELS 6 Xposition Yposition Zposition Xrotation Yrotation Zrotation
	JOINT Spine
	{
		OFFSET 0.00000 7.06766 0.00000
		CHANNELS 3 Xrotation Yrotation Zrotation
		JOINT Head
		{
			OFFSET 0.00000 15.03989 0.00000
			CHANNELS 3 Xrotation Yrotation Zrotation
			End Site
			{
				OFFSET 0.00000 4.52755 0.00000
			}
		}
		JOINT LeftShoulder
		{
			OFFSET 0.00000 10.53037 0.00000
			CHANNELS 3 Xrotation Yrotation Zrotation
			JOINT LeftArm
			{
				OFFSET 7.02886 0.00000 0.00000
				CHANNELS 3 Xrotation Yrotation Zrotation
				JOINT LeftForeArm
				{
					OFFSET 10.79770 0.00000 0.00000
					CHANNELS 3 Yrotation Zrotation Xrotation
					JOINT LeftHand
					{
						OFFSET 7.90744 0.00000 0.00000
						CHANNELS 3 Xrotation Yrotation Zrotation
						JOINT LeftHandThumb1
						{
							OFFSET 0.00000 0.00000 0.00000
							CHANNELS 3 Xrotation Zrotation Yrotation
							End Site
							{
								OFFSET 0.00000 0.00000 3.93700
							}
						}
						End Site
						{
							OFFSET 3.93700 0.00000 0.00000
						}
					}
				}
			}
		}
		JOINT RightShoulder
		{
			OFFSET 0.00000 10.53037 0.00000
			CHANNELS 3 Xrotation Yrotation Zrotation
			JOINT RightArm
			{
				OFFSET -7.02886 0.00000 0.00000
				CHANNELS 3 Xrotation Yrotation Zrotation
				JOINT RightForeArm
				{
					OFFSET -10.79770 0.00000 0.00000
					CHANNELS 3 Yrotation Zrotation Xrotation
					JOINT RightHand
					{
						OFFSET -7.90744 0.00000 0.00000
						CHANNELS 3 Xrotation Yrotation Zrotation
						JOINT RightHandThumb1
						{
							OFFSET 0.00000 0.00000 0.00000
							CHANNELS 3 Xrotation Zrotation Yrotation
							End Site
							{
								OFFSET 0.00000 0.00000 3.93700
							}
						}
						End Site
						{
							OFFSET -3.93700 0.00000 0.00000
						}
					}
				}
			}
		}
	}
	JOINT LeftUpLeg
	{
		OFFSET 4.01300 0.00000 0.00000
		CHANNELS 3 Xrotation Yrotation Zrotation
		JOINT LeftLeg
		{
			OFFSET 0.00000 -16.89976 0.00000
			CHANNELS 3 Xrotation Yrotation Zrotation
			JOINT LeftFoot
			{
				OFFSET 0.00000 -17.38918 0.00000
				CHANNELS 3 Xrotation Yrotation Zrotation
				JOINT LeftToeBase
				{
					OFFSET 0.00000 -1.27456 4.75673
					CHANNELS 3 Xrotation Yrotation Zrotation
					End Site
					{
						OFFSET 0.00000 0.00000 2.95275
					}
				}
			}
		}
	}
	JOINT RightUpLeg
	{
		OFFSET -4.01300 0.00000 0.00000
		CHANNELS 3 Xrotation Yrotation Zrotation
		JOINT RightLeg
		{
			OFFSET 0.00000 -16.89976 0.00000
			CHANNELS 3 Xrotation Yrotation Zrotation
			JOINT RightFoot
			{
				OFFSET 0.00000 -17.38918 0.00000
				CHANNELS 3 Xrotation Yrotation Zrotation
				JOINT RightToeBase
				{
					OFFSET 0.00000 -1.27456 4.75673
					CHANNELS 3 Xrotation Yrotation Zrotation
					End Site
					{
						OFFSET 0.00000 0.00000 2.95275
					}
				}
			}
		}
	}
}
MOTION
Frames: 11
Frame Time: 0.008333
 18.9771 35.6192 -25.2333 171.2067 -0.4028 178.5939 -21.2427 -0.1858 -0.1331 9.4662 -1.3735 3.3336 -27.7332 4.1846 15.6321 1.8915 -7.9617 -9.1167 -0.2547 0.0000 8.8118 1.3098 7.7773 -9.5905 33.1476 -0.0000 26.2537 7.1983 -12.8278 -6.6154 -40.6229 2.0796 12.0011 6.2593 -0.0000 34.3855 1.0079 -5.5911 10.2356 32.8623 0.0000 -24.3270 1.4746 9.3982 0.4152 -6.0737 0.0000 -0.0000 -18.6415 30.9268 2.4212 24.0110 0.0000 -0.0000 0.5137 -8.8201 2.9223 -3.7214 -0.0000 0.0000 -18.0547 -30.0762 -0.5748 22.1673 -0.0000 -0.0000
 18.9778 35.6191 -25.2292 171.2033 -0.4045 178.5940 -21.2336 -0.1911 -0.1311 9.4303 -1.3800 3.3126 -27.7219 4.1737 15.6403 1.9020 -7.9655 -9.1233 -0.2500 0.0000 8.8242 1.3028 7.7752 -9.5426 33.1476 -0.0000 26.2537 7.2372 -12.8537 -6.5901 -40.3345 2.2570 11.9944 6.2529 -0.0000 34.6299 1.0305 -5.6483 10.3567 32.8623 0.0000 -24.3270 1.4712 9.3993 0.4159 -6.0844 -0.0000 0.0000 -18.6332 30.9132 2.4268 24.0298 0.0000 -0.0000 0.5042 -8.8256 2.9236 -3.7199 0.0000 -0.0000 -18.0659 -30.0765 -0.6148 22.1728 -0.0000 0.0000
 18.9782 35.6196 -25.2250 171.1979 -0.4084 178.5934 -21.2325 -0.1695 -0.1285 9.4219 -1.3743 3.2941 -27.6790 4.1476 15.6358 1.8781 -7.9765 -9.1320 -0.2417 0.0000 8.8508 1.3044 7.7883 -9.5379 33.1476 -0.0000 26.2537 7.3136 -12.9145 -6.5440 -39.8928 2.4901 11.9495 6.2496 -0.0000 34.8235 1.0486 -5.6821 10.4744 32.8623 0.0000 -24.3270 1.4587 9.4146 0.4161 -6.0870 -0.0000 -0.0000 -18.6198 30.8995 2.4094 24.0110 -0.0000 0.0000 0.4895 -8.8258 2.9245 -3.7135 -0.0000 -0.0000 -18.0553 -30.0747 -0.6039 22.1815 -0.0000 -0.0000
 18.9785 35.6194 -25.2214 171.1996 -0.4100 178.5891 -21.2179 -0.1678 -0.1167 9.3994 -1.3706 3.2621 -27.6175 4.1611 15.6446 1.7874 -7.9720 -9.1528 -0.2602 0.0000 8.9017 1.2950 7.7473 -9.5196 33.1476 -0.0000 26.2537 7.3657 -12.9549 -6.5160 -39.4200 2.7107 11.9182 6.3036 -0.0000 35.1515 1.0648 -5.7331 10.5400 32.8623 0.0000 -24.3270 1.4574 9.4242 0.4208 -6.0955 0.0000 0.0000 -18.6155 30.8863 2.3999 24.0135 -0.0000 0.0000 0.4882 -8.8214 2.9282 -3.7179 -0.0000 -0.0000 -18.0564 -30.0785 -0.6046 22.2102 -0.0000 -0.0000
 18.9780 35.6200 -25.2170 171.1956 -0.4190 178.5811 -21.2064 -0.1890 -0.0927 9.3477 -1.3030 3.2343 -27.5805 4.1745 15.6404 1.7604 -7.9643 -9.1577 -0.2663 0.0000 8.8996 1.2857 7.7466 -9.4534 33.1476 -0.0000 26.2537 7.4380 -12.9945 -6.4998 -38.9653 2.9392 11.8987 6.3531 -0.0000 35.4867 1.0694 -5.7438 10.5654 32.8623 0.0000 -24.3270 1.4476 9.4295 0.4265 -6.1033 -0.0000 -0.0000 -18.6027 30.8784 2.4011 23.9817 0.0000 -0.0000 0.4740 -8.8343 2.9344 -3.7084 0.0000 0.0000 -18.0570 -30.0849 -0.6064 22.2296 -0.0000 0.0000
 18.9777 35.6199 -25.2124 171.1808 -0.4244 178.5814 -21.2080 -0.2011 -0.0871 9.3002 -1.2626 3.2142 -27.5765 4.1483 15.6568 1.8076 -7.9392 -9.1660 -0.2472 0.0000 8.8646 1.2823 7.7501 -9.4245 33.1476 -0.0000 26.2537 7.4955 -13.0278 -6.4751 -38.4145 3.1764 11.8521 6.4189 -0.0000 35.8100 1.0727 -5.7359 10.6114 32.8623 0.0000 -24.3270 1.4280 9.4333 0.4243 -6.1095 0.0000 -0.0000 -18.5932 30.8630 2.4191 24.0337 0.0000 -0.0000 0.4551 -8.8441 2.9365 -3.7145 -0.0000 0.0000 -18.0509 -30.0840 -0.6197 22.2096 0.0000 0.0000
 18.9782 35.6198 -25.2073 171.1671 -0.4250 178.5781 -21.2093 -0.2265 -0.0758 9.2557 -1.2003 3.1851 -27.5541 4.1464 15.6695 1.8470 -7.9176 -9.1585 -0.2345 0.0000 8.8273 1.2824 7.7876 -9.3810 33.1476 -0.0000 26.2537 7.5551 -13.0230 -6.4565 -37.8333 3.3760 11.7816 6.4989 -0.0000 35.9716 1.0623 -5.7068 10.5634 32.8623 0.0000 -24.3270 1.4061 9.4473 0.4285 -6.1124 -0.0000 0.0000 -18.5947 30.8439 2.4267 24.0436 -0.0000 0.0000 0.4315 -8.8310 2.9395 -3.7101 0.0000 0.0000 -18.0643 -30.0899 -0.6449 22.2292 -0.0000 0.0000
 18.9782 35.6198 -25.2031 171.1439 -0.4257 178.5790 -21.2253 -0.2346 -0.0762 9.1982 -1.1914 3.1732 -27.5116 4.1341 15.6956 1.8740 -7.9037 -9.1689 -0.2088 0.0000 8.7605 1.2798 7.7714 -9.3815 33.1476 -0.0000 26.2537 7.6192 -13.0303 -6.4168 -37.2311 3.5939 11.6964 6.5599 -0.0000 36.0562 1.1054 -6.0302 10.4080 32.8623 0.0000 -24.3270 1.3778 9.4657 0.4266 -6.1147 -0.0000 -0.0000 -18.5814 30.8188 2.4237 24.0610 0.0000 -0.0000 0.4020 -8.8222 2.9355 -3.7116 0.0000 -0.0000 -18.0598 -30.0892 -0.6346 22.2241 -0.0000 -0.0000
 18.9777 35.6199 -25.1998 171.1346 -0.4301 178.5783 -21.2270 -0.2559 -0.0659 9.1485 -1.1360 3.1371 -27.5107 4.1134 15.7031 1.9580 -7.8828 -9.1561 -0.1717 0.0000 8.7387 1.2768 7.7552 -9.3792 33.1476 -0.0000 26.2537 7.7086 -13.0352 -6.3884 -36.9047 3.7312 11.6236 6.6181 -0.0000 36.2668 1.0736 -5.9720 10.2104 32.8623 0.0000 -24.3270 1.3680 9.4650 0.4257 -6.1260 -0.0000 0.0000 -18.5792 30.8179 2.4273 24.0718 -0.0000 -0.0000 0.3881 -8.8189 2.9360 -3.7141 0.0000 -0.0000 -18.0494 -30.0946 -0.6311 22.2159 -0.0000 0.0000
 18.9775 35.6195 -25.1961 171.1193 -0.4412 178.5758 -21.2278 -0.2849 -0.0644 9.0704 -1.0989 3.1325 -27.4858 4.1169 15.7304 2.0117 -7.8985 -9.1586 -0.1062 0.0000 8.6628 1.2802 7.7714 -9.3843 33.1476 -0.0000 26.2537 7.7817 -13.0453 -6.3731 -36.7923 3.8008 11.5961 6.6928 -0.0000 36.6045 1.0242 -5.8300 9.9817 32.8623 0.0000 -24.3270 1.3433 9.4794 0.4273 -6.1248 0.0000 0.0000 -18.5822 30.7922 2.4337 24.0914 -0.0000 0.0000 0.3717 -8.8333 2.9392 -3.7199 0.0000 0.0000 -18.0498 -30.0846 -0.6501 22.2296 -0.0000 0.0000
 18.9770 35.6197 -25.1925 171.1099 -0.4515 178.5712 -21.2163 -0.3154 -0.0556 8.9782 -1.0604 3.1136 -27.4608 4.1314 15.7639 2.0093 -7.9014 -9.1806 -0.0525 0.0000 8.6387 1.2785 7.7576 -9.3884 33.1476 -0.0000 26.2537 7.8612 -13.0756 -6.3558 -36.7085 3.9019 11.5982 6.7709 -0.0000 36.7433 1.0420 -6.0995 9.7135 32.8623 0.0000 -24.3270 1.3315 9.4629 0.4312 -6.1338 -0.0000 -0.0000 -18.5716 30.7940 2.4448 24.0526 -0.0000 0.0000 0.3631 -8.8250 2.9423 -3.7288 -0.0000 -0.0000 -18.0505 -30.1073 -0.6480 22.2219 0.0000 -0.0000
